<svg width="22" height="22" viewBox="0 0 22 22" fill="none" xmlns="http://www.w3.org/2000/svg">
<path fill-rule="evenodd" clip-rule="evenodd" d="M16.9697 0.96967C17.2626 0.676777 17.7374 0.676777 18.0303 0.96967L21.0303 3.96967C21.3232 4.26256 21.3232 4.73744 21.0303 5.03033L12.0303 14.0303C11.9156 14.1451 11.7667 14.2195 11.6061 14.2425L8.10607 14.7425C7.87237 14.7758 7.6366 14.6973 7.46967 14.5303C7.30274 14.3634 7.22415 14.1276 7.25754 13.8939L7.75754 10.3939C7.78049 10.2333 7.85492 10.0844 7.96967 9.96967L16.9697 0.96967ZM9.20711 10.8536L8.88388 13.1161L11.1464 12.7929L19.4393 4.5L17.5 2.56066L9.20711 10.8536Z" fill="#808080"/>
<path fill-rule="evenodd" clip-rule="evenodd" d="M4 5.25C3.0335 5.25 2.25 6.0335 2.25 7V13C2.25 13.4142 1.91421 13.75 1.5 13.75C1.08579 13.75 0.75 13.4142 0.75 13V7C0.75 5.20507 2.20507 3.75 4 3.75H11.5C11.9142 3.75 12.25 4.08579 12.25 4.5C12.25 4.91421 11.9142 5.25 11.5 5.25H4ZM17.5 9.75C17.9142 9.75 18.25 10.0858 18.25 10.5V18C18.25 19.7949 16.7949 21.25 15 21.25H4C2.20507 21.25 0.75 19.7949 0.75 18V17C0.75 16.5858 1.08579 16.25 1.5 16.25C1.91421 16.25 2.25 16.5858 2.25 17V18C2.25 18.9665 3.0335 19.75 4 19.75H15C15.9665 19.75 16.75 18.9665 16.75 18V10.5C16.75 10.0858 17.0858 9.75 17.5 9.75Z" fill="#808080"/>
</svg>
