<svg width="332" height="229" viewBox="0 0 332 229" fill="none" xmlns="http://www.w3.org/2000/svg">
<path d="M0.188978 187.123C0.188978 187.123 -1.8902 196.399 7.74458 198.81C20.923 202.107 98.2783 210.768 79.4858 217.349C68.8775 221.065 84.9012 226.109 136.571 227.967C188.241 229.825 276.902 222.547 247.087 211.777C217.273 201.006 339.075 209.526 331.675 187.123H0.188978Z" fill="#CFDDF9"/>
<path d="M58.6908 186.61C58.6908 186.61 19.6638 101.501 47.7491 82.5498C66.5213 69.8823 86.4187 97.807 110.168 83.0343C131.311 69.8823 101.834 36.7508 137.111 28.0834C174.192 18.9739 204.571 92.7505 235.686 82.5498C273.44 70.1718 310.995 95.2991 278.54 186.773L58.6908 186.61Z" fill="#D4E8FF"/>
<path d="M157.55 4.06125C155.683 3.21312 153.738 2.63301 151.77 2.33678L152.052 1.00726C154.188 1.32819 156.294 1.95592 158.31 2.87282L157.55 4.06125ZM140.043 4.06125L139.18 2.92393C141.078 1.90125 143.168 1.23473 145.396 0.945557L145.64 2.28035C143.635 2.54131 141.752 3.13905 140.043 4.06125ZM166.901 11.0138C165.5 9.53444 164.056 8.22433 162.606 7.11877L163.681 6.11723C165.195 7.27042 166.699 8.63518 168.153 10.171L166.901 11.0138ZM132.283 12.0453L130.846 11.4476C131.898 9.65082 133.065 8.06212 134.313 6.72557L135.573 7.56134C134.392 8.82384 133.286 10.3332 132.283 12.0453ZM173.774 20.0594C172.72 18.3878 171.643 16.8168 170.574 15.392L171.928 14.6709C173.018 16.1238 174.116 17.7231 175.188 19.4264L173.774 20.0594ZM128.083 22.1612L126.529 21.835C127.088 19.9483 127.704 18.1727 128.36 16.5558L129.877 16.9931C129.234 18.573 128.631 20.3133 128.083 22.1612ZM179.199 29.8685C178.339 28.1246 177.471 26.4548 176.62 24.9066L178.074 24.3389C178.933 25.9029 179.809 27.5886 180.679 29.3501L179.199 29.8685ZM125.675 32.7937L124.089 32.5998C124.413 30.7096 124.769 28.8916 125.148 27.1971L126.723 27.4457C126.349 29.1226 125.996 30.9211 125.675 32.7937ZM183.812 40.0002C183.036 38.1788 182.307 36.5143 181.579 34.9114L183.076 34.4301C183.806 36.0417 184.542 37.715 185.319 39.5453L183.812 40.0002ZM124.217 43.585L122.621 43.4651C122.821 41.5713 123.038 39.741 123.267 38.0271L124.859 38.1788C124.633 39.8821 124.415 41.7018 124.217 43.585ZM267.767 45.8631C265.782 45.1578 263.773 44.7205 261.796 44.5654L261.945 43.2217C264.087 43.3892 266.254 43.86 268.39 44.6182L267.767 45.8631ZM250.284 47.517L249.364 46.4115C251.335 45.2495 253.326 44.389 255.282 43.853L255.775 45.1384C253.973 45.6321 252.122 46.4326 250.284 47.517ZM188.01 50.2924C187.213 48.2823 186.556 46.6442 185.942 45.1366L187.459 44.6993C188.074 46.2105 188.73 47.8521 189.529 49.864L188.01 50.2924ZM277.931 51.9746C276.388 50.6416 274.79 49.4672 273.183 48.4798L274.127 47.3883C275.807 48.4198 277.471 49.6453 279.077 51.0312L277.931 51.9746ZM59.107 54.1575C57.1076 53.3182 55.1407 52.7839 53.2613 52.5671L53.4791 51.2287C55.5314 51.465 57.665 52.0434 59.8209 52.9479L59.107 54.1575ZM123.285 54.4397L121.685 54.3603C121.824 52.396 121.962 50.6134 122.106 48.91L123.705 49.007C123.56 50.705 123.423 52.4824 123.285 54.4397ZM241.245 54.9704L240.002 54.1205C241.503 52.5582 242.927 51.2129 244.355 50.0103L245.487 50.9642C244.101 52.1351 242.713 53.4452 241.245 54.9704ZM41.8226 55.383L40.8507 54.3109C42.7644 53.0802 44.7559 52.1932 46.7701 51.6731L47.239 52.9656C45.4069 53.4363 43.5847 54.251 41.8226 55.383ZM285.631 60.4753C284.483 58.8954 283.279 57.402 282.052 56.0354L283.331 55.2208C284.588 56.6226 285.822 58.1531 286.998 59.7682L285.631 60.4753ZM69.1912 60.5318C67.5535 59.1881 65.943 58.0015 64.4047 57.0034L65.382 55.9331C66.9691 56.9629 68.627 58.1848 70.309 59.5655L69.1912 60.5318ZM192.117 60.627C191.383 58.8126 190.661 56.9964 190.055 55.4588L191.574 55.0321C192.181 56.5662 192.9 58.3806 193.634 60.1897L192.117 60.627ZM33.5957 63.3741L32.2451 62.6477C33.5044 60.9849 34.8028 59.4844 36.1041 58.1866L37.3281 59.0577C36.0726 60.3096 34.8169 61.7625 33.5957 63.3741ZM233.751 63.755L232.414 63.0109C233.753 61.3041 234.951 59.8264 236.075 58.4969L237.38 59.2798C236.267 60.597 235.08 62.0605 233.751 63.755ZM122.596 65.3206L120.996 65.2526C121.104 63.4482 121.211 61.6444 121.325 59.807L122.925 59.8776C122.811 61.7131 122.704 63.517 122.596 65.3206ZM77.7345 68.5809C76.2806 67.0599 74.9271 65.7064 73.5969 64.4425L74.7957 63.547C76.1428 64.8264 77.5123 66.1961 78.9824 67.7338L77.7345 68.5809ZM291.452 70.0548C290.589 68.3637 289.677 66.721 288.741 65.1722L290.171 64.5596C291.121 66.1344 292.049 67.804 292.923 69.522L291.452 70.0548ZM196.551 70.897C195.826 69.3627 195.074 67.6889 194.257 65.7798L195.764 65.3217C196.575 67.2165 197.319 68.8766 198.039 70.3969L196.551 70.897ZM226.723 72.894L225.384 72.1521C226.522 70.6931 227.7 69.1474 228.89 67.5859L230.239 68.3159C229.045 69.8813 227.867 71.4284 226.723 72.894ZM27.6498 72.8942L26.1837 72.349C27.0636 70.6702 28.0009 69.0215 28.997 67.4096L30.4177 68.0338C29.4378 69.62 28.5155 71.242 27.6498 72.8942ZM121.884 76.2185L120.285 76.1312C120.406 74.549 120.53 72.771 120.663 70.6951L122.263 70.7677C122.13 72.8485 122.006 74.6314 121.884 76.2185ZM85.5359 77.2222C84.0699 75.5337 82.8481 74.1475 81.6908 72.8598L82.9683 72.0447C84.131 73.3384 85.3576 74.7301 86.8293 76.4248L85.5359 77.2222ZM295.856 80.1919C295.21 78.4422 294.522 76.7198 293.808 75.0726L295.313 74.6099C296.035 76.2774 296.733 78.0206 297.385 79.7909L295.856 80.1919ZM202.271 80.7896C201.234 79.4416 200.206 77.854 199.129 75.9362L200.577 75.3586C201.624 77.2216 202.618 78.7578 203.617 80.0552L202.271 80.7896ZM218.951 81.7182L217.773 80.8021C218.988 79.6932 220.289 78.3254 221.755 76.6204L223.052 77.4122C221.551 79.1611 220.208 80.5696 218.951 81.7182ZM23.2013 83.0055L21.6689 82.6107C22.3057 80.8561 23.0042 79.1112 23.7451 77.4241L25.2479 77.8927C24.5175 79.5555 23.829 81.2757 23.2013 83.0055ZM210.467 85.9149C209.218 85.9149 207.994 85.6009 206.828 84.9813L207.683 83.8388C209.436 84.7713 211.159 84.7734 213.021 84.0296L213.709 85.2486C212.609 85.6908 211.518 85.9149 210.467 85.9149ZM93.1511 86.0262C91.8485 84.5438 90.4975 82.9768 89.3334 81.6245L90.6305 80.8316C91.7924 82.1814 93.1407 83.745 94.4389 85.2227L93.1511 86.0262ZM120.72 87.1236L119.131 86.9514C119.377 85.3394 119.598 83.5745 119.805 81.5552L121.402 81.6718C121.192 83.7098 120.97 85.4931 120.72 87.1236ZM299.146 90.6433C298.672 88.8598 298.161 87.0917 297.625 85.3881L299.174 85.0426C299.716 86.7627 300.231 88.5478 300.711 90.348L299.146 90.6433ZM20.1183 93.4841L18.5453 93.2268C18.9604 91.4244 19.4302 89.6273 19.9414 87.8852L21.497 88.2095C20.9921 89.9294 20.5283 91.7041 20.1183 93.4841ZM101.246 94.5916C99.9696 93.3937 98.6055 92.015 97.0757 90.3767L98.335 89.5416C99.8431 91.1568 101.186 92.5134 102.438 93.6894L101.246 94.5916ZM117.577 97.8768L116.15 97.2626C116.883 96.0521 117.531 94.3723 118.077 92.2699L119.642 92.5584C119.06 94.805 118.384 96.5446 117.577 97.8768ZM112.017 101.089C109.791 100.794 108.18 99.9394 105.949 98.4645L106.962 97.4181C108.916 98.7069 110.328 99.4799 112.188 99.7467L112.017 101.089ZM301.53 101.28C301.197 99.478 300.83 97.6826 300.441 95.944L302.016 95.6942C302.409 97.4467 302.777 99.256 303.113 101.072L301.53 101.28ZM18.2679 104.177L16.6735 104.042C16.8912 102.216 17.1565 100.391 17.4623 98.6177L19.048 98.8118C18.7456 100.566 18.4833 102.371 18.2679 104.177ZM303.146 112.027C302.932 110.213 302.69 108.402 302.426 106.643L304.017 106.474C304.283 108.244 304.527 110.068 304.743 111.893L303.146 112.027ZM17.5066 114.973L15.9044 114.946C15.949 113.112 16.0351 111.276 16.1602 109.489L17.7598 109.568C17.6359 111.339 17.5506 113.157 17.5066 114.973ZM304.104 122.834C303.995 121.02 303.86 119.2 303.704 117.425L305.302 117.325C305.459 119.111 305.593 120.942 305.705 122.766L304.104 122.834ZM16.0985 125.861C15.9925 124.033 15.9217 122.198 15.8891 120.407L17.4913 120.385C17.5238 122.162 17.5936 123.982 17.6989 125.796L16.0985 125.861ZM304.483 133.672C304.465 131.857 304.425 130.033 304.362 128.251L305.964 128.211C306.026 130.001 306.067 131.835 306.087 133.661L304.483 133.672ZM17.1369 136.741C16.8979 134.923 16.6899 133.096 16.5188 131.308L18.116 131.2C18.2859 132.974 18.4922 134.788 18.7296 136.592L17.1369 136.741ZM305.952 144.558L304.35 144.518C304.412 142.704 304.455 140.879 304.479 139.096L306.079 139.11C306.058 140.901 306.014 142.734 305.952 144.558ZM18.9213 147.549C18.565 145.75 18.2352 143.936 17.9409 142.155L19.528 141.97C19.8203 143.736 20.1481 145.539 20.5019 147.327L18.9213 147.549ZM305.352 155.442L303.753 155.357C303.888 153.549 304.007 151.727 304.106 149.94L305.707 150.003C305.607 151.798 305.488 153.627 305.352 155.442ZM21.3786 158.26C20.916 156.482 20.4755 154.685 20.0698 152.918L21.643 152.661C22.0461 154.417 22.4838 156.204 22.9437 157.97L21.3786 158.26ZM304.332 166.302L302.738 166.174C302.94 164.367 303.126 162.548 303.295 160.769L304.893 160.875C304.723 162.662 304.536 164.487 304.332 166.302ZM24.4596 168.855C23.8986 167.11 23.3548 165.334 22.843 163.574L24.3993 163.252C24.9082 165.002 25.4488 166.768 26.0062 168.502L24.4596 168.855ZM302.928 177.128L301.338 176.963C301.601 175.163 301.851 173.349 302.083 171.572L303.676 171.72C303.444 173.502 303.194 175.322 302.928 177.128ZM28.1551 179.313C27.4999 177.622 26.8518 175.869 26.2285 174.103L27.7645 173.718C28.3838 175.472 29.0275 177.215 29.6784 178.895L28.1551 179.313Z" fill="#DCE6FF"/>
<path d="M314.047 148.818C300.751 147.157 301.956 172.119 283.001 172.119C265.67 172.119 256.397 116.349 237.38 127.692C160.926 173.292 220.411 95.6944 169.004 94.1779C145.759 93.4919 130.269 114.38 124.557 151.362C116.277 184.795 97.0751 125.861 77.314 131.341C64.7548 134.824 66.1931 172.119 48.8634 172.119C29.9091 172.119 31.1576 151.129 17.8605 152.79C3.54364 154.578 0.18866 187.123 0.18866 187.123H331.675C331.675 187.123 328.365 150.607 314.047 148.818Z" fill="#EEF7FF"/>
<path d="M301.307 175.017C289.074 174.308 291.071 180.716 273.633 180.716C257.69 180.716 258.129 166.356 247.458 163.303C227.812 157.683 211.614 186.129 203.996 171.852C189.53 133.97 147.335 114.973 127.869 171.852C120.251 186.129 102.439 160.655 84.4063 163.303C73.3067 164.934 74.1753 180.716 58.2322 180.716C40.7947 180.716 42.791 174.308 30.5576 175.017C17.3866 175.781 13.4525 187.123 13.4525 187.123H318.413C318.413 187.123 314.479 175.781 301.307 175.017Z" fill="#DCE6FF"/>
<path d="M191.778 127.223L190.861 137.975H124.701L124.644 167.829L43.83 167.879L43.5964 195.134L47.4565 198.566H282.258V129.634L278.632 126.41L191.778 127.223Z" fill="#23659B"/>
<path d="M40.1493 164.525L47.4492 171.047V198.824L40.1493 192.301V164.525Z" fill="#1D3F70"/>
<path d="M121.36 134.624L127.748 141.019V170.682L121.36 164.286V134.624Z" fill="#1D3F70"/>
<path d="M187.059 123.191L194.359 129.488V140.78L187.059 134.484V123.191Z" fill="#1D3F70"/>
<path d="M275.006 123.185L282.258 129.634H194.488L187.235 123.185H275.006Z" fill="#3A72AA"/>
<path d="M121.36 134.624L128.572 140.78H194.359L187.148 134.624H121.36Z" fill="#3A72AA"/>
<path d="M40.1493 164.526L47.3588 170.682H127.748L120.539 164.526H40.1493Z" fill="#3A72AA"/>
<path d="M202.936 68.9522C203.225 69.3456 202.368 69.8088 202.144 70.1381C202.956 70.1336 203.68 69.9838 203.685 69.9872C204.582 69.5858 205.454 69.1432 206.303 68.6641C207.803 68.6538 207.347 71.682 204.328 72.5363C203.243 72.845 202.185 73.227 200.41 72.9846C199.828 72.9045 199.665 71.4544 200.022 71.0519C200.646 70.6185 202.504 68.584 202.936 68.9522Z" fill="#F99370"/>
<path d="M129.395 85.5649C129.605 86.0415 130.636 85.5836 131.134 85.7258C130.622 86.3634 129.957 86.8025 129.957 86.8075C128.996 87.2616 128.009 87.6671 127.002 88.0339C126.052 89.2092 129.354 90.7612 132.095 88.9247C133.081 88.2635 134.124 87.6721 134.993 86.1201C135.278 85.6123 134.388 84.4944 133.762 84.4944C132.784 84.4944 129.298 84.9922 129.395 85.5649Z" fill="#E57D61"/>
<path d="M172.681 69.0245C177.273 70.947 182.045 73.1445 187.17 73.436C190.167 73.3927 193.179 72.7434 196.06 71.9731C197.258 71.6498 198.458 71.2856 199.636 70.905C201.256 70.3384 202.459 72.4811 201.008 73.3151C196.994 75.771 192.404 77.6527 187.556 78.2626C184.01 78.5783 180.545 77.859 177.218 76.9512C174.624 76.2166 172.117 75.3267 169.693 74.2343C165.851 72.4315 168.799 67.2637 172.681 69.0245Z" fill="#F99370"/>
<path d="M200.747 73.5633C200.747 73.5633 200.374 73.8361 199.705 74.2644C197.311 75.7902 191.107 79.275 184.476 79.217C181.266 79.1898 178.423 78.8923 176.13 78.5319C175.788 78.4776 175.459 78.4233 175.14 78.3665C174.508 78.2554 173.928 78.1418 173.401 78.0307C172.936 77.9332 172.517 77.8381 172.144 77.7468C170.812 77.4271 170.073 77.1814 170.073 77.1814C171.45 71.9202 170.506 68.7885 169.674 67.238C169.241 66.4294 168.837 66.0505 168.81 66.027C168.81 66.0258 168.81 66.0258 168.81 66.0258C168.812 66.027 168.817 66.027 168.82 66.0283C168.827 66.0307 168.831 66.0332 168.837 66.0357C168.939 66.069 169.285 66.1887 169.825 66.3825C171.399 66.9504 174.613 68.1589 178.107 69.7624C181.794 71.4561 187.422 73.7805 198.132 71.4005C198.52 71.3141 198.917 71.2228 199.322 71.1265C199.322 71.1265 199.109 72.5449 200.747 73.5633Z" fill="#3A72AA"/>
<path d="M200.989 126.4L192.249 126.708C191.85 126.723 191.523 126.407 191.529 126.017C191.531 125.828 191.546 125.605 191.582 125.351C191.681 124.635 191.708 123.911 191.668 123.189C191.649 122.845 191.616 122.5 191.566 122.157L190.716 116.184C190.66 115.785 190.968 115.427 191.38 115.411L195.237 115.276C195.655 115.262 195.99 115.608 195.954 116.014L195.454 121.502C195.344 122.702 196.174 123.789 197.381 124.038C198.242 124.215 199.112 124.308 199.737 124.443C199.818 124.46 199.898 124.479 199.976 124.497H199.977C200.641 124.657 201.192 124.879 201.522 125.318C201.854 125.757 201.547 126.38 200.989 126.4Z" fill="#F99370"/>
<path d="M191.683 125.676C191.724 126.177 191.963 126.74 192.479 126.707L201.893 126.323C202.379 126.304 202.706 125.741 202.517 125.234C202.114 124.09 200.762 122.414 196.305 122.311C195.668 122.407 194.218 122.713 192.1 122.475C192.1 122.475 191.417 123.789 191.683 125.676Z" fill="#EB5648"/>
<path d="M202.516 124.95L191.622 125.471C191.675 125.909 191.777 126.332 191.955 126.709L201.889 126.234C202.371 126.211 202.7 125.566 202.523 124.97C202.522 124.965 202.519 124.957 202.516 124.95Z" fill="#CE3932"/>
<path d="M198.87 119.501C198.916 120.617 198.922 121.278 198.922 121.278C198.922 121.278 194.418 123.071 189.78 121.934C189.433 121.85 189.086 121.748 188.74 121.629C188.611 121.154 188.487 120.616 188.367 120.028C187.341 115.043 186.488 106.589 183.291 104.369C179.974 102.197 173.833 102.493 170.04 102.329C169.933 102.324 169.827 102.32 169.726 102.314C164.043 102.012 159.593 98.281 156.064 92.5732C155.542 91.7325 162.164 90.9361 162.164 90.9361L177.478 89.7712C181.42 90.6677 188.379 91.9515 192.863 96.3856C197.662 101.131 198.662 114.634 198.87 119.501Z" fill="#1D3F70"/>
<path d="M189.797 121.432C189.444 121.348 189.091 121.246 188.739 121.128C187.486 116.63 186.832 106.39 183.198 103.914C179.825 101.748 173.579 102.044 169.722 101.88L170.977 99.4453C170.977 99.4453 181.564 99.5539 185.086 103.759C188.607 107.961 189.797 121.432 189.797 121.432Z" fill="#103663"/>
<path d="M168.039 139.896L159.387 139.048C158.992 139.009 158.718 138.688 158.781 138.346C158.813 138.18 158.86 137.984 158.933 137.766C159.139 137.148 159.274 136.513 159.342 135.871C159.375 135.565 159.453 132.48 159.456 132.171C159.456 132.171 163.915 131.78 163.818 132.134L163.498 136.293C163.902 137.231 163.689 136.978 164.842 137.352C165.661 137.619 166.505 137.813 167.101 138.011C167.177 138.037 167.254 138.063 167.328 138.09H167.329C167.958 138.316 168.468 138.582 168.728 139.012C168.987 139.442 168.592 139.951 168.039 139.896Z" fill="#F99370"/>
<path d="M158.775 138.006C158.751 138.413 158.903 138.895 159.381 138.938L168.084 139.896C168.533 139.947 168.902 139.54 168.789 139.11C168.557 138.141 167.516 136.618 163.43 135.937C162.833 135.928 161.465 135.978 159.545 135.503C159.545 135.503 158.759 136.463 158.775 138.006Z" fill="#EB5648"/>
<path d="M168.789 139.167L158.772 138.142C158.775 138.424 158.827 138.704 158.95 138.964L168.083 139.897C168.526 139.943 168.893 139.577 168.793 139.181C168.792 139.176 168.79 139.171 168.789 139.167Z" fill="#CE3932"/>
<path d="M169.73 65.7124C170.107 63.9811 170.097 61.4181 169.965 60.3569C169.742 58.2596 166.467 58.7126 166.791 60.7859C166.901 60.7304 166.849 64.4846 166.517 65.4928C164.519 65.8777 169.811 69.2811 171.332 68.5656C172.291 68.1138 169.73 65.7124 169.73 65.7124Z" fill="#F99370"/>
<path d="M166.14 60.6971C166.141 60.7216 166.141 60.7474 166.144 60.7719C166.145 60.8067 166.15 60.8402 166.154 60.8737C166.24 60.8312 166.238 62.9498 166.072 64.4713C167.508 65.2708 169.22 65.1522 169.534 65.1225C169.778 63.521 169.734 61.5004 169.679 60.7409C169.657 60.563 169.639 60.4572 169.637 60.4353C169.629 60.3876 169.62 60.3386 169.608 60.2922C169.493 59.7983 169.152 59.3986 168.705 59.1768C168.704 59.1768 168.704 59.1768 168.704 59.1768C168.393 59.0233 168.034 58.9576 167.66 59.0053C167.292 59.0517 166.965 59.2039 166.71 59.4257C166.699 59.4347 166.688 59.445 166.679 59.4527C166.333 59.77 166.125 60.2161 166.14 60.6971Z" fill="#E57D61"/>
<path d="M164.247 57.2311C164.247 57.2311 164.281 55.6693 164.913 54.5927L166.071 55.0298L164.247 57.2311Z" fill="#8E4A35"/>
<path d="M171.471 89.7711C171.841 98.5504 170.773 110.871 169.993 116.609C169.231 122.217 167.914 129.681 167.315 133.008H167.314C167.119 134.09 166.999 134.734 166.999 134.734C166.999 134.734 162.313 136.766 157.863 134.225C157.863 134.225 157.887 133.587 157.917 132.508C158.015 129.067 158.176 121.143 157.817 115.236C157.468 109.472 153.192 99.541 156.172 92.5348L171.471 89.7711Z" fill="#1D3F70"/>
<path d="M163.832 62.9472C165.661 64.4305 168.532 64.6527 170.601 63.6675H170.602C170.756 63.5882 170.901 63.5015 171.041 63.405H171.042C177.585 57.9224 168.689 48.9543 164.637 56.7858C163.267 58.9906 160.88 60.1736 163.832 62.9472Z" fill="#F99370"/>
<path d="M164.297 57.8705C164.183 57.6541 164.272 57.3885 164.496 57.2803C164.72 57.1696 164.995 57.2557 165.109 57.4721C165.224 57.6885 165.135 57.9517 164.911 58.0623C164.687 58.173 164.412 58.0869 164.297 57.8705Z" fill="#C16256"/>
<path d="M165.235 59.8624C165.453 59.8769 165.678 59.8697 165.869 59.8345C165.942 59.8211 165.984 59.775 165.959 59.7314C165.936 59.6889 165.854 59.6659 165.78 59.6792C165.307 59.7665 164.631 59.6295 164.539 59.5057C164.506 59.462 164.608 59.4184 164.699 59.3893C165.504 59.1369 166.04 58.2562 166.063 58.2198C166.089 58.1762 166.051 58.1301 165.975 58.1155C165.9 58.0997 165.82 58.1228 165.795 58.1652C165.791 58.1737 165.271 59.0229 164.564 59.2449C164.179 59.3662 164.235 59.513 164.277 59.57C164.388 59.7192 164.803 59.8333 165.235 59.8624Z" fill="#C16256"/>
<path d="M165.16 56.1991C166.397 55.595 168.641 56.1435 169.743 56.1353C169.743 56.1353 169.509 57.8812 171.413 59.1236C171.573 60.7289 171.859 61.4287 170.079 63.3874H170.081C170.215 63.3106 170.341 63.2266 170.462 63.1332H170.463C175.939 58.0715 168.8 49.4364 165.16 56.1991Z" fill="#E57D61"/>
<path d="M163.671 52.475C164.414 51.1049 166.614 50.3599 168.517 52.052C169.981 53.3548 171.562 53.3448 171.53 54.7174C174.467 55.964 173.011 58.9901 173.011 58.9901L171.539 58.8278C169.857 57.555 169.908 55.6845 169.908 55.6845C169.533 55.702 169.138 55.687 168.789 55.6034C167.705 55.3451 166.102 55.2203 164.88 55.6408C163.659 56.0626 162.843 54.0061 163.671 52.475Z" fill="#8E4A35"/>
<path d="M173.341 59.6504C173.214 60.3678 172.717 60.852 172.229 60.7303C171.742 60.6086 171.45 59.928 171.577 59.2105C171.704 58.4919 172.202 58.0077 172.689 58.1294C173.177 58.251 173.469 58.9317 173.341 59.6504Z" fill="#F99370"/>
<path d="M172.506 59.042C172.524 59.0371 172.969 58.9068 173.218 59.0822C173.282 59.1264 173.324 59.1868 173.348 59.26C173.349 59.2608 173.349 59.2608 173.349 59.2608C173.351 59.268 173.354 59.2737 173.356 59.2809V59.2817C173.392 59.4185 173.365 59.6019 173.272 59.8304C173.263 59.8562 173.23 59.8723 173.196 59.869C173.192 59.8682 173.187 59.8682 173.183 59.8666C173.145 59.8586 173.124 59.828 173.135 59.799C173.21 59.614 173.237 59.4627 173.222 59.3493C172.808 59.4056 172.601 59.7572 172.599 59.7604C172.586 59.7838 172.555 59.7966 172.525 59.7934C172.517 59.7926 172.511 59.7918 172.505 59.7894C172.468 59.7781 172.451 59.7459 172.466 59.7186C172.477 59.7009 172.702 59.3075 173.188 59.2399C173.171 59.2085 173.15 59.182 173.12 59.1618C172.937 59.0331 172.561 59.1425 172.558 59.1433C172.52 59.1546 172.479 59.1409 172.464 59.1128C172.45 59.0846 172.468 59.0532 172.506 59.042Z" fill="#C16256"/>
<path d="M176.778 89.8335C176.778 89.8335 171.081 95.0533 156.035 92.6621C156.035 92.6621 156.237 87.4307 156.475 82.3644C156.496 81.9296 156.516 81.4961 156.538 81.0652C156.538 81.0639 156.538 81.0639 156.538 81.0639C156.73 77.1165 156.937 73.559 157.081 73.0539C158.512 67.9594 162.986 66.0298 164.999 65.4058C165.615 65.2153 166 65.1462 166 65.1462C166 66.4083 168.298 67.2344 169.093 66.6884C169.754 66.2331 169.512 65.4173 169.499 65.3726C169.499 65.3713 169.499 65.3713 169.499 65.3713C169.501 65.3726 169.505 65.3726 169.508 65.3738C169.515 65.3764 169.519 65.3789 169.524 65.3815C169.843 65.5119 170.147 65.6615 170.437 65.8303C172.468 67.017 173.805 69.1563 174.539 72.2227C174.8 73.3109 174.984 74.5142 175.097 75.8326C175.117 76.0615 175.136 76.2955 175.151 76.5321C175.183 77.027 175.256 77.5704 175.355 78.1471C175.356 78.1522 175.356 78.1548 175.356 78.1548C175.98 81.78 177.643 86.7748 176.778 89.8335Z" fill="#3A72AA"/>
<path d="M167.752 58.1103C167.776 58.1114 167.801 58.1093 167.824 58.1019C167.887 58.0819 167.914 58.0323 167.884 57.9912C167.866 57.9648 167.413 57.366 166.224 57.2331C166.154 57.2257 166.086 57.2563 166.074 57.3016C166.061 57.348 166.108 57.3913 166.18 57.3987C167.233 57.5157 167.634 58.0408 167.652 58.0629C167.671 58.0903 167.71 58.1072 167.752 58.1103Z" fill="#C16256"/>
<path d="M155.524 72.3999C151.886 75.6366 148.229 77.6053 144.918 79.3769C142.319 80.7682 139.7 82.246 136.884 83.2813C135.712 83.7099 134.507 84.1079 133.31 84.4805C131.631 84.9613 132.217 87.3001 133.953 87.1233C138.864 86.7494 144.062 85.8261 148.279 83.5102C151.666 81.6521 155.812 79.6898 158.276 77.4591C160.593 75.3619 162.839 72.0057 163.963 69.7864C165.696 66.214 159.086 67.6282 155.524 72.3999Z" fill="#E57D61"/>
<path d="M166.072 65.1469C166.072 65.1469 165.948 65.6292 165.642 66.4886C164.921 68.5113 163.192 72.6248 159.708 77.4924C158.735 78.852 157.49 80.0578 156.06 81.1134C150.543 85.1884 142.261 87.0623 136.14 87.1316C135.75 87.1354 135.359 87.1303 134.972 87.1162C134.972 87.1162 135.402 85.3474 134.135 84.2777C134.135 84.2777 134.49 84.1212 135.07 83.8531C137.165 82.8809 142.217 80.4451 144.333 78.557C146.95 76.2226 154.026 65.7844 164.947 65.1751C165.013 65.1713 165.08 65.1674 165.147 65.1636C165.453 65.1495 165.762 65.1443 166.072 65.1469Z" fill="#3A72AA"/>
<path d="M198.873 118.793C198.916 120.19 198.922 121.017 198.922 121.017C198.922 121.017 194.639 123.262 190.228 121.839C189.898 121.734 189.568 121.606 189.239 121.457C189.117 120.862 188.999 120.188 188.884 119.453C188.884 119.453 193.941 121.095 198.871 118.793H198.873Z" fill="#103663"/>
<path d="M166.985 132.572C166.797 133.844 166.681 134.6 166.681 134.6C166.681 134.6 162.156 136.986 157.86 134.002C157.86 134.002 157.883 133.253 157.912 131.985C157.912 131.985 161.065 134.536 166.985 132.572Z" fill="#103663"/>
<path d="M135.393 83.615C134.61 83.9026 134.135 84.0704 134.135 84.0704C135.838 85.218 135.259 87.1142 135.259 87.1142C135.782 87.1307 136.309 87.1363 136.834 87.1307C136.841 87.0881 137.228 84.7282 135.393 83.615Z" fill="#23659B"/>
<path d="M200.747 73.3522C200.747 73.3522 200.361 73.5817 199.667 73.9409C197.682 72.9192 198.033 71.5663 198.033 71.5663L198.038 71.533C198.44 71.4603 198.851 71.3835 199.271 71.3025C199.271 71.3025 199.049 72.4956 200.747 73.3522Z" fill="#23659B"/>
<path d="M165.618 60.749C165.386 60.749 165.224 60.7073 165.22 60.7061C165.176 60.695 165.151 60.6521 165.162 60.6091C165.175 60.5674 165.219 60.5429 165.261 60.5539C165.304 60.565 166.313 60.8202 166.833 59.9109C166.855 59.8729 166.903 59.8594 166.942 59.8802C166.981 59.9011 166.995 59.9502 166.974 59.9882C166.606 60.6288 166.012 60.749 165.618 60.749Z" fill="#C16256"/>
<path d="M162.422 73.9409C162.334 74.1261 159.681 79.6296 156.035 82.7355C156.059 82.276 156.082 81.8178 156.106 81.3624C156.108 81.361 156.108 81.361 156.108 81.361C156.108 81.361 159.911 77.8158 162.422 73.9409Z" fill="#23659B"/>
<path d="M177.021 78.3381C176.689 78.2816 176.369 78.225 176.06 78.1658C176.06 78.1658 176.06 78.1633 176.058 78.1581C176.051 78.0668 175.969 77.1784 175.787 75.836V75.8309C175.65 74.8267 175.46 73.5692 175.201 72.2038C175.201 72.2025 175.201 72.2025 175.201 72.2012L175.197 72.1819C175.197 72.1819 176.069 74.8087 177.021 78.3381Z" fill="#23659B"/>
<path d="M170.635 65.7622C170.635 65.7926 170.635 65.8231 170.633 65.8548C170.629 66.1195 170.594 66.4079 170.495 66.6792C170.272 67.2997 169.722 67.8317 168.48 67.7814C167.112 67.7271 166.294 67.137 165.814 66.531C165.474 66.1062 165.303 65.6749 165.223 65.4155C165.178 65.2766 165.161 65.188 165.16 65.176C165.16 65.1747 165.16 65.1747 165.16 65.1747L165.348 65.1641C165.636 65.1496 165.926 65.1443 166.218 65.1469C166.218 66.4529 168.505 67.3077 169.295 66.7427C169.954 66.2716 169.713 65.4275 169.699 65.3811C169.698 65.3811 169.699 65.3798 169.699 65.3798C169.702 65.3811 169.706 65.3811 169.709 65.3825C169.773 65.4089 170.103 65.5399 170.635 65.7622Z" fill="#23659B"/>
<path d="M131.398 85.3789C131.398 85.3789 128.61 85.2413 126.907 86.4105C125.207 87.5785 124.098 89.5234 124.098 89.5234C124.098 89.5234 126.015 89.8622 126.186 90.6506C126.186 90.6506 128.425 89.1044 129.206 88.0638C129.986 87.0219 131.398 85.3789 131.398 85.3789Z" fill="#F99370"/>
<path d="M97.8741 84.669C97.8741 84.669 94.1098 81.3362 88.9329 86.5236C83.756 91.7098 86.9867 91.7037 78.8319 94.3469C72.0486 96.5463 70.0489 103.278 79.0204 105.241C87.5975 107.118 93.0533 101.037 98.1856 101.349C103.318 101.659 103.943 91.9409 102.309 89.4896C100.675 87.0383 97.8741 84.669 97.8741 84.669Z" fill="#C92828"/>
<path d="M99.9122 105.42C105.421 105.97 111.307 105.335 116.121 102.654C121.376 99.4539 125.732 94.773 127.694 89.2676C127.966 88.5513 127.149 87.8159 126.368 88.0602C126.343 88.0869 125.281 88.3286 125.283 88.3859C124.944 88.8337 124.586 89.2689 124.21 89.6938C119.365 95.072 112.378 99.5137 104.409 98.959C103.219 98.9373 102.026 98.8546 100.848 98.7172C96.0115 98.2452 95.0863 104.775 99.9122 105.42Z" fill="#F99370"/>
<path d="M115.886 102.498C115.886 102.498 115.859 103.02 115.526 103.605C115.526 103.605 115.526 103.605 115.525 103.605C114.266 105.461 109.397 106.523 104.88 106.48C104.403 106.476 103.932 106.459 103.468 106.431C102.87 106.392 102.287 106.334 101.728 106.254C101.444 104.181 99.7399 99.161 99.4608 97.1076C100.992 96.9344 103.636 97.4956 106.204 97.6674C108.83 98.0304 110.964 96.1931 112.731 97.0259C112.731 97.0259 112.556 100.955 115.886 102.498Z" fill="#9358E0"/>
<path d="M64.252 145.427C64.252 145.427 67.1068 144.982 69.423 144.298L70.2613 149.575L64.8553 149.292C64.8553 149.292 63.1326 147.863 64.252 145.427Z" fill="#F99370"/>
<path d="M94.8984 164.754L95.3149 161.887L99.4608 161.924C99.4608 161.924 98.9141 163.177 98.4015 164.79C98.4015 164.79 96.6112 166.197 94.8984 164.754Z" fill="#F99370"/>
<path d="M98.5483 84.6588C102.523 83.2869 102.405 90.9137 102.018 92.4096L98.5483 84.6588Z" fill="#C92828"/>
<path d="M61.1162 145.313C60.7924 145.395 60.4864 145.519 60.2239 145.705L61.8246 154.325C61.9025 154.744 62.4305 154.98 62.8571 154.777C62.8621 154.775 62.8673 154.772 62.8723 154.769C63.8472 154.301 65.1801 152.933 64.6762 148.94C64.6762 148.94 63.965 147.653 64.0126 145.366C64.0126 145.366 62.4283 144.98 61.1162 145.313Z" fill="#1D3F70"/>
<path d="M63.8739 154.776L61.4536 146.057C61.0073 146.133 60.5857 146.247 60.2239 146.419L62.43 154.366C62.5373 154.753 63.2651 154.97 63.853 154.783L63.8739 154.776Z" fill="#395B96"/>
<path d="M94.0051 167.085C94.0386 167.386 94.1194 167.68 94.2693 167.945L103.364 168.043C103.807 168.049 104.132 167.621 103.989 167.208C103.988 167.204 103.986 167.198 103.984 167.193C103.655 166.246 102.459 164.823 98.2816 164.567C98.2816 164.567 96.8506 164.971 94.5104 164.526C94.5104 164.526 93.8679 165.862 94.0051 167.085Z" fill="#1D3F70"/>
<path d="M103.984 167.264L93.9859 167.165C94.0194 167.441 94.1004 167.71 94.2506 167.953L103.363 168.043C103.806 168.048 104.132 167.657 103.989 167.277L103.984 167.264Z" fill="#395B96"/>
<path d="M67.5546 149.131C67.9786 149.211 68.4517 149.28 68.9678 149.339C68.9678 149.339 68.9693 149.339 68.971 149.341C75.5268 150.095 88.953 149.161 93.767 144.537V144.535C94.4244 143.921 95.0325 143.278 95.593 142.614C99.8419 137.579 101.43 131.174 101.96 124.77C102.144 122.552 102.201 120.335 102.198 118.173C101.266 113.273 96.2361 111.839 92.2714 113.037C89.1642 113.973 86.7094 116.526 87.3906 120.29V120.273C88.5814 123.324 88.8228 126.161 88.2909 128.747C86.746 136.24 78.7023 141.599 68.4517 143.762C67.8976 143.879 67.3371 143.987 66.7719 144.084C66.7719 144.084 66.0843 146.954 67.5546 149.131Z" fill="#E8C0A6"/>
<path d="M93.9859 117.035L101.434 127.588L101.688 127.465C101.804 126.595 101.897 125.707 101.969 124.799C102.02 124.199 102.06 123.592 102.092 122.975C102.162 121.649 102.197 120.287 102.198 118.884L99.6476 118.259L93.9859 117.035Z" fill="#D1A68F"/>
<path d="M92.5109 146.057C92.5109 146.057 94.3454 144.643 95.2676 143.308C97.8765 139.527 98.0112 139.234 99.4608 134.868L97.785 126.397L88.0105 125.829C88.0899 127.658 88.4369 128.454 87.5985 130.988C87.5985 130.988 92.7352 135.003 92.5109 146.057Z" fill="#D1A68F"/>
<path d="M85.707 126.779C86.6339 127.74 87.6217 128.59 88.4625 129.504C92.5819 133.98 94.8784 138.597 95.8688 143.377C97.0235 148.933 96.4132 154.711 94.8574 160.743C94.7351 161.217 94.6079 161.689 94.4742 162.166C94.4742 162.166 98.2879 163.294 100.412 162.458C100.637 162.037 100.858 161.619 101.072 161.204V161.202C107.421 148.961 109.293 139.419 102.327 125.526C100.956 122.794 99.2444 119.891 97.1556 116.766C95.6917 115.185 94.0844 114.231 92.4998 113.787C85.868 111.928 79.1734 120.019 85.707 126.779Z" fill="#E8C0A6"/>
<path d="M102.19 118.448C102.259 119.32 102.259 119.741 102.259 119.741C89.8529 121.991 83.0879 118.849 83.0879 118.849C83.0131 118.873 83.0217 118.476 83.0976 117.786C83.2506 116.401 83.6727 113.837 84.2419 111.117C84.3434 110.633 84.4498 110.145 84.56 109.655C85.3309 106.236 86.2966 102.86 87.2168 101.516C89.0782 96.7854 95.4357 95.9959 99.4668 97.4912C100.096 97.6998 103.176 102.574 103.822 104.47C104.913 107.671 101.188 110.093 101.651 114.136C101.963 116.1 102.116 117.524 102.19 118.448Z" fill="#9358E0"/>
<path d="M95.2133 97.546C95.3585 97.6687 95.4708 97.7761 95.3443 97.9656C95.1212 98.3019 95.321 99.1619 95.8625 99.3295C95.9842 99.3678 96.1247 99.3711 96.2824 99.3229C97.1329 99.0677 97.1594 99.393 97.8102 99.9967C98.461 100.602 99.1259 100.277 99.3788 99.7644C99.6315 99.2528 100.189 99.5793 100.346 98.9735C100.385 98.8245 100.379 98.681 100.346 98.5484C100.264 98.1978 99.797 97.58 99.797 97.58C99.797 97.58 99.3053 97.443 99.2648 97.4584C97.9616 96.8131 96.3962 96.697 94.9167 96.8942C94.9167 96.8942 94.9167 96.8942 94.9152 96.8942C94.8372 97.2404 95.0463 97.4036 95.2133 97.546Z" fill="#7640CC"/>
<path d="M99.4608 95.3485L99.1438 97.7876C99.1438 97.7876 99.8241 99.5739 98.3336 99.4379C96.2101 99.2436 95.8109 97.022 95.8109 97.022L96.1459 95.0479L99.4608 95.3485Z" fill="#F99370"/>
<path d="M95.9687 95.0479L95.8109 95.9799C97.2115 96.8887 98.9658 96.8218 99.2754 96.7931L99.4608 95.365L95.9687 95.0479Z" fill="#E57D61"/>
<path d="M102.802 94.2901C101.488 95.6488 99.3685 96.1169 97.6364 95.8601C96.9162 95.7623 96.2357 95.5302 95.658 95.1338H95.6559C93.2996 93.3408 92.4065 89.5489 93.6028 87.0558C95.333 83.3995 100.296 83.7385 101.616 87.5565C101.871 88.1302 102.332 88.7535 102.887 89.2086C104.359 90.4369 104.473 92.4659 102.802 94.2901Z" fill="#F99370"/>
<path d="M101.743 92.1725L99.6257 91.6712C99.6257 91.6712 100.046 92.9842 100.832 93.0552C101.584 93.1245 101.743 92.1725 101.743 92.1725Z" fill="#F9F8F3"/>
<path d="M93.7206 91.806C93.7206 91.806 93.9153 93.293 95.3352 94.7812C95.2026 94.7105 95.0753 94.6309 94.9529 94.5463H94.9509C92.7229 92.8091 91.8779 89.1352 93.0094 86.7196C93.842 84.6464 96.5947 83.402 98.8119 84.8625C98.8119 84.8625 99.9442 87.9956 93.9034 90.7258L93.7206 91.806Z" fill="#E57D61"/>
<path d="M99.543 85.1601C99.543 85.1601 100.741 88.1616 93.9646 90.3731L92.2646 91.0862C92.2646 91.0862 90.7692 89.0664 91.9395 86.6861C93.1099 84.307 98.5828 83.3712 99.543 85.1601Z" fill="#C92828"/>
<path d="M102.158 89.5102C102.261 89.2882 102.157 89.0304 101.927 88.9301C101.697 88.8323 101.428 88.9325 101.325 89.1522C101.223 89.3742 101.326 89.6344 101.556 89.7322C101.786 89.8325 102.056 89.7323 102.158 89.5102Z" fill="#C16256"/>
<path d="M101.302 91.5149C101.097 91.5363 100.886 91.5363 100.704 91.5066C100.633 91.4947 100.591 91.4496 100.61 91.4045C100.629 91.3605 100.702 91.3344 100.773 91.3463C101.227 91.4211 101.849 91.262 101.925 91.1337C101.952 91.0886 101.852 91.0482 101.764 91.0221C100.988 90.7929 100.408 89.9225 100.383 89.8856C100.355 89.8429 100.388 89.7942 100.456 89.7776C100.527 89.7598 100.603 89.78 100.631 89.8227C100.636 89.831 101.196 90.6706 101.879 90.8725C102.252 90.9829 102.21 91.1325 102.176 91.1919C102.084 91.3451 101.704 91.4722 101.302 91.5149Z" fill="#C16256"/>
<path d="M92.2299 92.2441C92.4663 92.957 93.2399 93.4117 93.9577 93.2597C94.6754 93.1078 95.0656 92.4072 94.8294 91.6943C94.5929 90.9826 93.8195 90.5279 93.1017 90.6799C92.3838 90.8319 91.9936 91.5324 92.2299 92.2441Z" fill="#F99370"/>
<path d="M92.9894 90.7387C91.3645 89.9949 92.7033 94.2911 92.2994 91.393C92.7149 91.4702 92.9433 92.1569 92.9457 92.1631C93.3022 92.4269 92.8499 91.2542 92.3258 91.1801C92.4194 90.552 93.2348 91.2156 92.9894 90.7387Z" fill="#C16256"/>
<path d="M74.506 126.168C74.0331 126.219 74.0945 125.109 73.8112 124.785C73.4147 125.428 73.2041 126.189 73.1994 126.191C73.1203 127.12 73.0924 128.051 73.1072 128.983C72.3983 130.217 72.4123 126.651 72.3488 126.301C72.3441 126.301 72.3394 126.3 72.3348 126.298C72.0476 127.234 71.812 128.184 71.6592 129.149C70.6471 130.256 71.5413 126.379 71.5874 126.012C71.5853 126.011 71.5833 126.01 71.5813 126.009C71.1601 126.843 70.8423 127.728 70.6241 128.635C69.5035 129.66 70.7222 125.793 70.8884 125.456C70.8859 125.452 70.8833 125.45 70.8806 125.448C70.4529 126.055 70.1041 126.716 69.7923 127.389C68.6092 128.198 70.1468 124.999 70.333 124.707C70.3588 124.441 71.085 122.943 71.928 121.727C72.2404 121.277 74.0899 121.357 74.2792 121.86C74.4567 122.331 74.6494 123.897 74.6776 124.143C74.8118 124.614 74.9903 125.866 74.506 126.168Z" fill="#F99370"/>
<path d="M111.688 97.9259C111.979 98.9298 111.059 98.9694 111.578 99.9874C112.096 101.005 113.086 100.521 113.432 102.377C113.773 104.205 115.372 103.811 115.42 103.798C115.422 103.8 115.422 103.8 115.422 103.8C115.737 103.203 115.885 102.675 115.885 102.675C112.734 101.104 112.776 97.0504 112.776 97.0504C112.39 96.7384 111.896 96.768 111.323 96.9078C111.44 97.2015 111.586 97.5729 111.688 97.9259Z" fill="#7640CC"/>
<path d="M98.6427 89.7686C98.6507 89.7651 98.6587 89.7597 98.6664 89.7526C99.1584 89.223 99.4367 88.3047 99.4483 88.2655C99.4717 88.1871 99.46 88.0854 99.4222 88.0373C99.3843 87.9891 99.3346 88.0123 99.311 88.0908C99.3084 88.0997 99.0432 88.9698 98.5917 89.4566C98.5522 89.4994 98.5369 89.5992 98.5574 89.6812C98.5741 89.7472 98.609 89.7811 98.6427 89.7686Z" fill="#C16256"/>
<path d="M102.046 88.8879C102.13 88.8745 102.195 88.8041 102.197 88.7184C102.2 88.6194 102.121 88.5376 102.02 88.5357C102.013 88.5338 101.293 88.5071 100.666 88.0483C100.585 87.9893 100.47 88.0064 100.41 88.0845C100.349 88.1625 100.366 88.2749 100.446 88.3339C101.169 88.8631 101.976 88.8898 102.01 88.8917C102.022 88.8917 102.034 88.8898 102.046 88.8879Z" fill="#C16256"/>
<path d="M94.3568 161.008C94.2385 161.414 94.1153 161.819 93.9859 162.228C93.9859 162.228 97.6078 163.25 99.7341 162.478C99.9524 162.117 100.166 161.759 100.373 161.403C100.373 161.403 98.5476 162.194 94.3568 161.008Z" fill="#D1A68F"/>
<path d="M67.3415 149.378C67.6697 149.454 68.0359 149.519 68.4354 149.575C68.4354 149.575 67.4423 147.799 68.0359 144.298C67.607 144.408 67.1732 144.51 66.7356 144.603C66.7356 144.603 66.2034 147.318 67.3415 149.378Z" fill="#D1A68F"/>
<path d="M92.1436 104.037C84.9278 107.045 81.821 110.457 78.1922 116.588C77.0458 118.472 75.9752 120.417 75.0302 122.39C74.3517 123.894 71.6664 123.092 72.1425 121.534C73.4482 116.824 75.5108 112.329 78.1831 108.086C80.8002 104.176 84.8026 101.106 89.2506 98.9255C93.115 97.17 96.0441 102.321 92.1436 104.037Z" fill="#F99370"/>
<path d="M91.1416 105.383C88.6826 105.944 86.6005 108.901 85.0117 109.909C84.4618 110.258 83.9538 110.482 83.5241 110.625C82.7154 110.895 82.187 110.878 82.187 110.878C81.2651 108.527 78.2814 107.953 78.2814 107.953C77.7987 107.518 77.5724 106.998 77.5616 106.416C77.5172 104.253 80.6635 101.735 84.4896 99.0767C89.1715 95.8231 94.0767 97.0231 94.0767 97.0231C96.2889 100.832 93.5993 104.825 91.1416 105.383Z" fill="#9358E0"/>
<path d="M93.0734 102.963C92.858 103.295 89.512 108.587 84.8611 110.878C84.9514 110.434 85.0276 110.046 85.1255 109.597C85.1255 109.597 90.1316 106.95 93.0734 102.963Z" fill="#7640CC"/>
<path d="M104.936 106.481C104.469 106.477 104.008 106.461 103.553 106.435C103.452 103.918 102.236 102.138 102.198 102.084C103.657 103.543 104.507 105.35 104.936 106.481Z" fill="#7640CC"/>
<path d="M83.0361 110.629C82.2934 110.894 81.8083 110.878 81.8083 110.878C80.9618 108.562 78.2221 107.997 78.2221 107.997C77.7788 107.569 77.5711 107.057 77.5612 106.483C78.3923 106.424 78.5901 107.581 79.3516 107.664C80.113 107.745 80.5086 107.409 81.101 107.798C81.6933 108.187 81.3828 109.069 81.8624 109.593C82.342 110.117 83.0305 109.744 83.0361 110.629Z" fill="#7640CC"/>
<path d="M102.198 119.534C89.8311 122.357 83.0877 118.416 83.0877 118.416C83.0132 118.445 83.0217 117.947 83.0974 117.081C83.6184 116.974 84.2783 117.021 84.9455 117.553C86.4094 118.721 85.7189 119.146 87.5122 119.075C89.3066 119.004 88.621 118.189 89.7421 118.721C90.8631 119.251 91.0192 120.208 92.0781 119.923C93.137 119.641 92.9822 119.146 93.7763 119.288C94.5704 119.429 95.162 120.311 96.2209 119.975C97.2798 119.641 97.4139 118.76 98.1568 118.812C98.8997 118.862 99.5535 119.605 100.207 119.464C100.782 119.338 101.171 118.151 102.129 117.911C102.198 119.005 102.198 119.534 102.198 119.534Z" fill="#7640CC"/>
<path d="M126.056 86.7746C126.056 86.7746 127.455 84.8955 129.478 84.4418C131.5 83.9894 134.268 84.3943 134.268 84.3943C134.268 84.3943 133.482 84.9528 133.777 86.788C133.777 86.788 131.159 86.916 129.761 86.8441C128.361 86.7709 126.056 86.7746 126.056 86.7746Z" fill="#E57D61"/>
<path d="M229.054 41.6994C229.054 41.6994 227.128 41.6593 226.068 43.4852C224.808 45.6554 226.407 47.2978 225.931 48.7565C225.454 50.2167 224.631 51.2538 225.276 52.7169C225.923 54.1785 224.853 55.0922 225.408 56.2956C225.963 57.4976 226.796 57.4575 226.76 59.0726C226.723 60.6863 228.315 62.0618 229.779 61.1051C231.245 60.1469 232.057 62.2454 234.396 60.9358C236.736 59.6263 236.833 58.0843 239.548 57.6497C242.265 57.2151 241.187 53.8615 243.489 52.615C245.793 51.3671 245.593 49.402 243.667 48.0637C241.739 46.7255 240.49 46.3941 239.089 43.1668C237.509 39.5349 231.624 37.9643 229.054 41.6994Z" fill="#662948"/>
<path d="M237.032 58.7536C235.075 63.4766 231.88 68.648 226.12 70.2874C220.628 71.4712 214.967 70.935 209.517 69.9601C207.521 69.8918 207.391 67.4614 209.442 67.4739C214.337 67.6703 219.486 67.6717 224.181 66.3625C228.335 64.9947 230.201 60.7119 231.664 57.2522C232.79 54.0557 238.171 55.5488 237.032 58.7536Z" fill="#E57D61"/>
<path d="M235.79 65.422C235.514 66.0011 235.194 66.5428 234.842 67.0499C234.27 67.8687 233.608 68.5933 232.879 69.2306C232.742 69.3511 232.603 69.4689 232.461 69.5825C229.474 71.9849 225.532 73.0226 222.252 73.0794C218.607 73.1445 213.523 72.0805 211.175 70.9971C210.449 70.6618 209.984 70.3237 209.906 70.0175C209.578 68.7235 210.318 67.5085 210.318 67.5085C210.558 67.255 211.075 67.0499 211.764 66.8823C214.216 66.2796 218.826 66.1231 220.688 65.7518C223.076 65.2766 226.777 64.0324 228.96 59.7888C230.266 57.2451 231.637 55.9913 232.527 55.3956C233.122 54.9966 233.535 54.8996 233.535 54.8996C233.535 54.8996 235.028 56.4928 235.919 58.8509C235.987 59.0282 236.051 59.2111 236.109 59.3967C236.668 61.1549 236.823 63.2649 235.79 65.422Z" fill="#EB5648"/>
<path d="M234.84 67.0501C234.162 68.0233 233.353 68.8646 232.46 69.5835C231.761 68.7917 230.414 67.0281 230.23 64.9826C229.978 62.2003 232.272 58.915 232.272 58.915L234.84 67.0501Z" fill="#CE3932"/>
<path d="M269.174 126.571L276.494 121.225C276.3 120.787 274.484 119.478 274.02 118.845C273.799 118.597 271.48 116.204 271.284 115.939L268.554 113.621L265.327 115.978L270.45 120.295C271.06 120.807 271.171 121.63 270.722 122.258C269.792 123.701 268.058 124.601 268.049 126.172C268.112 126.654 268.753 126.879 269.174 126.571Z" fill="#F99370"/>
<path d="M275.624 120.111C275.797 120.353 275.924 120.617 275.98 120.901L268.588 126.299C268.229 126.56 267.679 126.436 267.519 126.048C267.148 125.139 267.179 123.405 270.44 120.759C270.44 120.759 271.881 120.219 273.505 118.52C273.505 118.52 274.921 119.13 275.624 120.111Z" fill="#1D3F70"/>
<path d="M268.116 126.391L276.227 120.468C276.4 120.71 276.527 120.974 276.583 121.257L269.191 126.655C268.826 126.922 268.266 126.788 268.116 126.391Z" fill="#395B96"/>
<path d="M232.866 53.4022L233.535 54.901C233.535 54.901 234.428 63.7862 236.132 63.7849C239.151 63.7821 237.156 54.2285 237.315 53.7014C237.315 53.7014 236.764 52.7045 236.577 52.2208L232.866 53.4022Z" fill="#F99370"/>
<path d="M232.153 126.332L241.624 126.344C241.788 125.896 241.324 123.86 241.418 123.109C241.422 122.792 241.54 121.06 241.577 120.746L240.935 115.986L236.76 115.981L237.627 122.209C237.73 122.948 237.227 123.646 236.431 123.878C234.682 124.465 232.699 124.18 231.568 125.387C231.273 125.795 231.606 126.331 232.153 126.332Z" fill="#F99370"/>
<path d="M241.914 125.534C241.874 125.82 241.785 126.095 241.625 126.345L232.058 126.332C231.594 126.331 231.258 125.924 231.413 125.534C231.778 124.623 233.041 123.302 237.45 123.104C237.45 123.104 238.95 123.502 241.416 123.109C241.416 123.109 242.075 124.38 241.914 125.534Z" fill="#1D3F70"/>
<path d="M231.419 125.521L241.914 125.535C241.874 125.82 241.785 126.096 241.623 126.345L232.058 126.332C231.587 126.332 231.251 125.912 231.419 125.521Z" fill="#395B96"/>
<path d="M235.488 48.7267C235.504 48.7863 235.516 48.8472 235.525 48.9082C235.418 48.8874 236.066 51.0325 236.708 52.5308C235.399 53.7093 233.527 54.0527 233.18 54.1026C232.328 52.2179 231.766 50.3968 231.613 49.2059C231.467 47.1508 234.999 46.7174 235.488 48.7267Z" fill="#E57D61"/>
<path d="M236.986 46.3412C237.467 47.8736 237.76 49.7022 236.982 51.1651L236.979 51.1665C234.851 55.3715 225.667 53.9642 227.372 49.0194C227.982 47.7095 227.403 46.0715 227.801 44.8561C229.358 40.2019 235.961 42.3531 236.986 46.3412Z" fill="#F99370"/>
<path d="M230.426 50.7954L231.632 49.889C231.951 50.6024 231.208 51.2533 230.426 50.7954Z" fill="#F9F8F3"/>
<path d="M231.36 47.341C230.936 47.0139 231.601 46.5911 232.015 46.928C232.439 47.2551 231.774 47.6779 231.36 47.341Z" fill="#C16256"/>
<path d="M227.743 47.538C227.294 47.0789 228.057 46.4174 228.493 46.8883C228.942 47.3474 228.179 48.0089 227.743 47.538Z" fill="#C16256"/>
<path d="M230.434 50.8496C230.474 50.8551 231.64 49.9428 231.672 49.9306C231.698 49.9116 231.701 49.8763 231.678 49.8532C231.65 49.7202 230.425 50.7614 230.388 50.7533C230.341 50.7858 230.378 50.8578 230.434 50.8496Z" fill="#C16256"/>
<path d="M233.469 118.506C233.618 119.496 233.72 120.039 233.72 120.039C237.714 121.221 243.05 121.478 246.61 120.271C243.685 111.256 244.875 86.749 246.949 83.727C246.949 83.727 254.219 105.385 261.519 117.489C261.827 118 262.135 118.494 262.445 118.966C262.445 118.966 270.747 119.051 275.024 112.488C275.024 112.488 274.57 112.013 273.855 111.15C271.706 108.564 267.189 103.293 265.4 96.1068C261.413 80.0948 256.767 72.7999 253.363 70.0027C248.654 66.1345 238.915 70.7598 235.776 76.3047C231.388 88.612 231.75 108.41 233.469 118.506Z" fill="#1D3F70"/>
<path d="M229.81 50.1159C229.958 50.0552 230.313 49.9715 230.21 49.7946C230.174 49.7568 230.109 49.7555 230.069 49.7893C229.807 50.0025 229.298 50.0444 229.175 49.9445C229.131 49.9094 229.175 49.8392 229.219 49.7865C229.615 49.3451 229.614 47.7846 229.3 48.2773C229.3 48.2868 229.401 49.2709 229.057 49.6786C228.705 50.2077 229.371 50.232 229.81 50.1159Z" fill="#C16256"/>
<path d="M236.986 46.3411C237.467 47.8735 237.76 49.7021 236.983 51.1649L236.979 51.1663C237.28 50.1025 236.818 48.1905 236.818 48.1905L236.086 47.555C229.688 48.242 228.138 44.0828 228.138 44.0828C230.27 40.2393 236.024 42.7771 236.986 46.3411Z" fill="#E57D61"/>
<path d="M227.714 43.2841C227.714 43.2841 229.924 48.4856 238.046 47.9347L239.907 45.891C240.139 41.1278 232.494 37.1092 227.714 43.2841Z" fill="#662948"/>
<path d="M253.363 70.0044C248.935 73.2717 242.152 76.7355 235.775 76.304C235.775 76.3055 234.896 75.8917 234.961 74.7302C235.109 72.0629 233.995 70.6014 232.879 69.2316C231.364 67.377 229.844 65.6924 231.424 61.4144C231.815 60.3681 232.388 58.5801 232.86 57.0432C233.12 56.1935 233.384 55.4281 233.535 54.9005C234.459 58.1914 235.278 59.2569 235.918 58.852C236.615 58.4116 237.057 56.2201 237.06 53.2247C237.472 53.1642 237.884 53.139 238.292 53.1494C243.261 53.2587 247.82 58.3569 251.383 64.3669C251.712 64.924 252.035 65.4885 252.345 66.0574C252.548 66.3293 252.754 66.6145 252.944 66.91C253.223 67.346 253.464 67.8026 253.587 68.2651C253.741 68.8444 253.717 69.4325 253.363 70.0044Z" fill="#EB5648"/>
<path d="M262.277 118.981C262.586 119.492 262.894 119.985 263.204 120.457C263.204 120.457 271.505 120.543 275.782 113.98C275.782 113.98 275.329 113.504 274.614 112.642C274.614 112.642 270.867 118.18 262.277 118.981Z" fill="#163356"/>
<path d="M232.742 46.4416C232.66 46.4576 232.562 46.4395 232.492 46.3847C231.349 45.5041 230.28 45.4838 230.268 45.4819C230.132 45.4819 230.008 45.3918 230 45.2864C229.99 45.1782 230.094 45.0905 230.234 45.091C230.287 45.0923 231.519 45.107 232.836 46.1172C232.936 46.1963 232.944 46.3211 232.849 46.3932C232.819 46.4176 232.781 46.4334 232.742 46.4416Z" fill="#C16256"/>
<path d="M227 46.5248C226.917 46.5347 226.823 46.5115 226.766 46.461C226.693 46.3963 226.705 46.3121 226.798 46.274C226.815 46.2652 227.289 46.0658 228.546 45.811C228.655 45.7903 228.777 45.8313 228.827 45.904C228.876 45.9763 228.828 46.0516 228.722 46.0727C227.525 46.3155 227.066 46.5056 227.063 46.5084C227.043 46.5168 227.021 46.5216 227 46.5248Z" fill="#C16256"/>
<path d="M253.541 69.644C253.541 69.644 244.144 76.1825 235.486 76.1011C235.486 76.1011 235.413 76.3171 235.626 76.7343C235.626 76.7343 244.209 77.5316 253.737 70.3259C253.737 70.3259 254.029 69.9221 253.541 69.644Z" fill="#CE3932"/>
<path d="M244.685 120.752C245.927 120.53 246.608 120.272 246.608 120.272C245.111 113 244.829 106.806 244.873 101.412C244.963 90.528 246.948 83.728 246.948 83.728C246.948 83.728 245.65 83.1201 245.145 82.0712C245.145 82.0712 239.501 102.93 244.685 120.752Z" fill="#163356"/>
<path d="M233.469 118.506C233.619 119.496 233.72 120.039 233.72 120.039C237.714 121.219 243.052 121.479 246.611 120.271C246.518 119.824 246.431 119.378 246.345 118.936C246.345 118.936 239.66 120.245 233.469 118.506Z" fill="#163356"/>
<path d="M253.587 68.265C252.589 67.1544 250.493 65.2669 246.942 63.9879C241.633 62.0768 240.143 58.0021 240.143 58.0021L251.383 64.366C251.714 64.9243 252.034 65.4885 252.347 66.0556C252.848 66.732 253.382 67.4896 253.587 68.265Z" fill="#CE3932"/>
<path d="M244.657 53.937C248.626 56.3101 252.566 58.7892 256.006 61.7632C258.548 64.1702 260.384 67.0689 261.95 70.0245C262.367 71.3417 264.602 73.6287 262.545 74.5309C261.143 74.9843 260.623 73.5165 259.999 72.7204C259.095 71.4554 258.127 70.2074 257.119 69.0162C255.741 67.4116 254.237 65.8193 252.491 64.5851C251.357 63.8182 249.978 62.9729 248.789 62.2582C246.488 60.8979 243.943 59.4532 241.605 58.1406C238.493 56.3239 241.497 52.1602 244.657 53.937Z" fill="#F99370"/>
<path d="M261.485 77.87C261.955 77.9894 261.955 76.7736 262.237 76.4603C262.694 77.1039 262.945 77.8684 262.95 77.8716C263.057 78.8082 263.106 79.7496 263.107 80.6925C263.1 80.9949 263.634 81.0274 263.669 80.7235C263.795 79.8101 263.877 78.8889 263.905 77.9677C263.91 77.9677 263.915 77.9661 263.92 77.9661C264.26 78.9044 264.543 79.8628 264.733 80.8351C265.875 82.0044 264.815 77.9925 264.75 77.6637C264.754 77.6622 264.756 77.6606 264.757 77.6606C265.246 78.495 265.619 79.3851 265.882 80.297C267.152 81.3578 265.715 77.4001 265.523 77.0884C265.525 77.0853 265.528 77.0837 265.532 77.0806C266.022 77.687 266.427 78.3492 266.788 79.0254C268.117 79.8457 266.369 76.6588 266.168 76.3812C266.053 76.0308 265.417 74.9018 264.1 73.5758C263.688 73.1618 262.141 73.8596 261.939 74.3714C261.75 74.8506 261.698 75.5422 261.67 75.7904C261.532 76.2044 260.945 77.6637 261.485 77.87Z" fill="#F99370"/>
<path d="M262.839 71.687C262.839 71.687 261.687 73.2833 260.284 73.0586C260.144 73.0372 259.696 72.8659 259.099 72.5418C258.199 72.057 256.963 71.2268 255.928 70.0417C255.157 69.1625 254.306 68.0708 252.944 66.9087C251.546 65.7191 249.952 63.8628 247.013 62.6946C242.861 61.0463 241.066 59.8949 239.584 57.0279C238.992 55.8872 237.205 55.0279 237.059 53.2236C237.059 53.2236 237.499 53.0677 238.282 52.9086C240.206 52.5218 244.201 52.1319 248.765 54.0784C254.28 56.4285 262.117 64.9806 263.006 69.7099C263.151 70.4867 263.108 71.161 262.839 71.687Z" fill="#EB5648"/>
<path d="M238.166 57.5741C238.061 58.7531 238.047 59.6115 237.553 59.8442C236.917 60.1453 236.338 59.6366 236.108 59.3983C236.034 59.3217 235.993 59.2687 235.993 59.2687C235.993 59.2687 235.685 60.9967 234.528 60.3376C233.636 59.8303 233.168 58.2221 232.859 57.0432C232.621 56.1359 232.525 55.3974 232.525 55.3974C233.121 54.9667 233.534 54.9012 233.534 54.9012C234.459 58.1915 235.279 59.2575 235.918 58.852C236.614 58.413 237.056 56.2209 237.059 53.2248C237.059 53.2248 237.498 53.0673 238.28 52.9098C238.285 52.9098 238.288 52.9098 238.288 52.9098C238.288 52.9098 238.288 52.9962 238.291 53.1495C238.301 53.8435 238.313 55.9144 238.166 57.5741Z" fill="#CE3932"/>
<path d="M211.142 71.3025C210.46 70.9451 210.023 70.5837 209.95 70.257C209.642 68.8743 210.337 67.5745 210.337 67.5745C210.562 67.3041 211.048 67.0859 211.695 66.9052C211.695 66.9052 210.412 69.1755 211.142 71.3025Z" fill="#CE3932"/>
<path d="M262.839 71.687C262.839 71.687 261.687 73.2833 260.284 73.0586C260.145 73.0372 259.696 72.8659 259.099 72.5418C259.262 72.3873 261.46 72.0096 263.006 69.7099C263.151 70.4867 263.108 71.161 262.839 71.687Z" fill="#CE3932"/>
</svg>
