<svg width="60" height="61" viewBox="0 0 60 61" fill="none" xmlns="http://www.w3.org/2000/svg">
<path d="M49.6099 60.3746H10.2322C4.58108 60.3746 0 55.7957 0 50.1456V10.7849C0 5.13654 4.58108 0.555904 10.2322 0.555904H49.6099C55.2605 0.555904 59.8413 5.13654 59.8413 10.7849V50.1456C59.8413 55.7957 55.2605 60.3746 49.6099 60.3746Z" fill="#E3F0FF"/>
<path d="M52.092 15.2799V44.4903C52.092 45.1508 52.0064 45.7925 51.8489 46.4033C51.2309 48.7767 49.4952 50.6982 47.2358 51.5709C47.1495 51.6051 47.0629 51.6359 46.9763 51.665C46.1983 51.9354 45.3658 52.0808 44.4976 52.0808H15.2769C14.8923 52.0808 14.5128 52.0517 14.1434 51.9953C11.7774 51.6411 9.76859 50.1969 8.64583 48.188C8.03318 47.0946 7.68414 45.8335 7.68414 44.4903V15.2799C7.68414 11.0877 11.0836 7.68945 15.2769 7.68945H44.4976C48.6924 7.68945 52.092 11.0877 52.092 15.2799Z" fill="#D2E4FF"/>
<path d="M27.4028 26.2293C27.4028 26.2293 27.2742 30.206 26.7651 31.9872L22.7352 34.7969L37.9044 37.0658L34.2867 32.0694C34.2867 32.0694 33.1947 26.7375 33.7675 24.7663C34.3403 22.7934 27.4028 26.2293 27.4028 26.2293Z" fill="#FFB27D"/>
<path d="M27.3809 26.7787C27.3809 26.777 28.5803 29.6653 30.8397 29.602C33.0992 29.537 33.6135 26.984 33.6135 26.984L27.3809 26.7787Z" fill="#ED985F"/>
<path d="M26.0322 24.4412C26.0322 24.4412 25.3023 20.8 24.7932 19.698C24.2841 18.5944 23.8597 13.6749 29.5032 13.42C29.5032 13.42 31.667 13.6749 32.8552 12.9528C32.8552 12.9528 32.8552 13.6749 32.5583 13.9282C32.5583 13.9282 34.5098 13.4627 36.0375 15.1584C37.5651 16.8559 35.0195 22.7934 35.1467 24.1931L26.0322 24.4412Z" fill="#2C3A64"/>
<path d="M35.2311 19.3678V23.341C35.2311 24.0049 35.0784 24.6431 34.8208 25.23H34.8191C34.373 26.243 33.6143 27.1037 32.7843 27.6838C32.0477 28.2022 31.2563 28.4983 30.5807 28.4863C29.9923 28.4743 29.2275 28.1868 28.4865 27.6957C27.4892 27.0353 26.5393 26.0086 26.1345 24.8005L26.1285 24.7817L26.1136 24.7321C25.9969 24.3608 25.9301 23.9758 25.9301 23.5788V19.3678C25.9301 18.3822 26.6179 17.5762 27.4581 17.5762H33.7032C34.5435 17.5762 35.2311 18.3822 35.2311 19.3678Z" fill="#FFB27D"/>
<path d="M39.4438 33.0225C39.4438 33.0225 35.8819 32.2559 34.2867 32.0694C32.8784 33.9396 31.868 34.441 30.5819 34.9509C28.5098 34.6652 26.7651 32.0455 26.7651 31.9873C24.5117 32.2183 22.9906 32.6991 22.3708 32.8925C22.3708 32.8925 22.3694 32.8925 22.3682 32.8925C22.2238 32.9113 16.7072 33.6779 8.64587 48.2582C9.76863 50.2654 11.7774 51.7112 14.1434 52.0637C15.1822 51.1671 17.4135 49.2301 19.1626 47.7107C19.1434 48.2018 19.1393 48.6449 19.1504 49.0317C19.1804 50.0754 19.2134 51.1124 19.2369 52.1493H41.2302C41.1876 51.6223 41.1534 51.1141 41.1285 50.6298C41.0531 49.1189 40.983 47.7381 40.9183 46.4787C40.917 46.4684 40.917 46.4564 40.9156 46.4462C40.9149 46.4325 40.9142 46.4205 40.9135 46.4068C40.9152 46.4085 40.9166 46.4085 40.9183 46.4102C41.2371 46.6857 41.6164 47.016 42.03 47.3753C42.1123 47.4454 42.1962 47.519 42.2814 47.5926C42.354 47.6559 42.4285 47.7209 42.5038 47.786C42.607 47.8749 42.7114 47.9656 42.816 48.058C43.004 48.2206 43.1948 48.3849 43.3874 48.5525C43.4752 48.6295 43.5648 48.7065 43.6526 48.7835C43.6993 48.8246 43.746 48.8657 43.794 48.9067C43.8477 48.9529 43.9025 48.9991 43.9562 49.0471C43.9959 49.0813 44.0372 49.1155 44.0773 49.1514C44.1721 49.2336 44.2654 49.3157 44.3587 49.3961C44.4359 49.4646 44.5114 49.5296 44.5882 49.5963C44.6514 49.6511 44.7159 49.7058 44.7793 49.7606C45.01 49.9625 45.2368 50.1593 45.4566 50.3492C45.5444 50.4245 45.6311 50.5015 45.7177 50.5751C45.8069 50.6538 45.8964 50.7308 45.9828 50.8044C46.0433 50.8574 46.1038 50.9105 46.1643 50.9618C46.1917 50.9857 46.2178 51.008 46.244 51.0302C46.336 51.1107 46.424 51.1894 46.5106 51.2612C46.5998 51.3399 46.6864 51.4152 46.7687 51.4871C46.8033 51.5179 46.8375 51.5453 46.8704 51.5744C46.9062 51.6069 46.9419 51.636 46.9763 51.6651C47.063 51.636 47.1496 51.6052 47.2359 51.5709C49.4952 50.6983 51.231 48.7767 51.8489 46.4034C44.2984 33.4109 39.4438 33.0225 39.4438 33.0225Z" fill="#F99746"/>
<path d="M25.9301 21.6161C25.9301 21.6161 25.9388 19.0871 27.9437 18.697C29.9487 18.3086 34.4358 19.9307 35.0722 18.0861C35.7087 16.2398 26.3988 16.2723 25.9301 17.4496C25.4614 18.6268 25.9301 21.6161 25.9301 21.6161Z" fill="#2C3A64"/>
<path d="M32.7843 25.9333V27.6838C32.0477 28.2022 31.2563 28.4983 30.5807 28.4863C29.9924 28.4743 29.2275 28.1868 28.4865 27.6957V25.9333C28.4865 24.9563 29.2868 24.1555 30.2649 24.1555H31.0057C31.984 24.1555 32.7843 24.9563 32.7843 25.9333Z" fill="#2C3A64"/>
<path d="M34.8191 25.23C33.979 27.1413 32.0183 28.5102 30.5807 28.4863C29.1995 28.4606 26.8386 26.9052 26.1345 24.8005L26.1285 24.7817L26.1136 24.7321C26.1136 24.7321 27.5973 25.9966 28.5785 25.3703H32.6999C32.6999 25.3703 33.7789 25.9863 34.8191 25.23Z" fill="#2C3A64"/>
<path d="M31.0799 25.7195H30.191C29.987 25.7195 29.7278 25.3858 29.7278 25.1822C29.7278 25.1822 29.987 24.9786 30.191 24.9786H31.0799C31.2838 24.9786 31.5817 25.148 31.6296 25.2695C31.6296 25.2695 31.5062 25.7195 31.0799 25.7195Z" fill="#FFB27D"/>
</svg>
