<svg width="60" height="61" viewBox="0 0 60 61" fill="none" xmlns="http://www.w3.org/2000/svg">
<path d="M49.6103 60.3746H10.233C4.58289 60.3746 0 55.7947 0 50.146V10.7843C0 5.13522 4.58289 0.555908 10.233 0.555908H49.6103C55.2605 0.555908 59.8413 5.13522 59.8413 10.7843V50.146C59.8413 55.7947 55.2605 60.3746 49.6103 60.3746Z" fill="#E3F0FF"/>
<path d="M52.0914 15.2804V44.4896C52.0914 45.2194 51.9891 45.9257 51.7968 46.5938C50.9154 49.6472 48.1709 51.9105 44.8701 52.07C44.7474 52.0767 44.6247 52.0796 44.4979 52.0796H15.2775C15.2243 52.0796 15.1732 52.0796 15.12 52.0767C15.073 52.0767 15.0219 52.0755 14.9707 52.0726C11.6597 51.942 8.8927 49.6895 7.9949 46.639C7.79243 45.9574 7.6861 45.2359 7.6861 44.4896V15.2804C7.6861 11.0876 11.0851 7.68911 15.2775 7.68911H44.4979C48.6924 7.68911 52.0914 11.0876 52.0914 15.2804Z" fill="#D2E4FF"/>
<path d="M25.5146 28.814C25.5146 28.814 25.3455 34.0088 24.6809 36.3359L19.4174 40.0068L39.2328 42.9712L34.508 36.444C34.508 36.444 33.0806 29.4791 33.8297 26.9026C34.5769 24.3262 25.5146 28.814 25.5146 28.814Z" fill="#FFB27D"/>
<path d="M25.4863 29.5316C25.4863 29.5299 27.051 33.3023 30.0048 33.2192C32.9547 33.1362 33.627 29.7994 33.627 29.7994L25.4863 29.5316Z" fill="#ED985F"/>
<path d="M23.723 26.4786C23.723 26.4786 22.7707 21.7219 22.1051 20.2812C21.4414 18.8407 20.8858 12.4135 28.2567 12.0808C28.2567 12.0808 31.0841 12.4135 32.6373 11.4713C32.6373 11.4713 32.6373 12.4135 32.2505 12.7458C32.2505 12.7458 34.7991 12.1361 36.794 14.3527C38.7889 16.5688 35.4647 24.3263 35.6316 26.1548L23.723 26.4786Z" fill="#2C3A64"/>
<path d="M29.6656 31.7617C27.5283 31.724 23.592 28.8774 23.592 25.352V19.8509C23.592 18.5635 24.4905 17.5102 25.5873 17.5102H33.7458C34.8446 17.5102 35.7431 18.5635 35.7431 19.8509V25.0406C35.7431 28.7371 32.1199 31.8049 29.6656 31.7617Z" fill="#FFB27D"/>
<path d="M23.5906 22.7885C23.5906 22.7885 23.6023 19.4831 26.2212 18.9748C28.8402 18.4666 34.7036 20.5858 35.5337 18.1756C36.3658 15.7655 24.2044 15.807 23.5906 17.3444C22.9787 18.8821 23.5906 22.7885 23.5906 22.7885Z" fill="#2C3A64"/>
<path d="M43.0072 52.0803H15.2774C15.2237 52.0803 15.172 52.0803 15.1183 52.0775C15.8205 45.7272 17.3265 38.0684 18.5301 37.5642C18.5301 37.5642 18.6673 37.5135 18.9339 37.431C18.9359 37.4296 18.9399 37.4296 18.9399 37.4296C19.5685 37.2331 20.9034 36.8662 22.841 36.5693C22.845 36.5693 22.853 36.5679 22.8549 36.5679C23.4159 36.4816 24.0227 36.4033 24.6812 36.3357C24.6812 36.4128 26.961 39.7438 29.6646 40.1176C31.3476 39.4524 32.6685 38.8865 34.5067 36.4444C35.1134 36.5158 35.7361 36.5982 36.3707 36.6972C37.9145 36.9348 39.5438 37.258 41.2427 37.6867C41.4456 37.7361 41.6465 37.7884 41.8514 37.8432H41.8534C41.933 37.8625 42.0145 37.8846 42.0941 37.9065C42.0941 37.9065 42.114 37.9902 42.1637 38.4878C42.1637 38.4878 42.1637 38.4878 42.1637 38.4892C42.2672 39.6173 42.5159 42.8701 43.0072 52.0803Z" fill="#739AF0"/>
<path d="M18.7519 37.4648C18.7444 37.4665 18.737 37.4676 18.7314 37.4704C18.6269 37.4937 18.4851 37.531 18.3079 37.5927C18.2967 37.5968 18.2855 37.5994 18.2761 37.6022C18.2687 37.6065 18.2593 37.6091 18.2519 37.6104C18.2425 37.6147 18.2351 37.6162 18.2351 37.6162C16.7723 38.1231 13.1099 39.9811 7.99402 46.6392C8.89331 49.6898 11.6583 51.9423 14.9719 52.073C15.0204 52.0756 15.0726 52.0771 15.1193 52.0771C15.1734 52.0797 15.2238 52.0797 15.2779 52.0797H18.0354H22.6382C22.7203 47.3895 22.7763 43.3095 22.8117 40.5128C22.8248 39.2776 22.8379 38.2936 22.8453 37.6162C22.8528 36.9371 22.8565 36.5675 22.8565 36.5675C22.8528 36.5675 22.8453 36.5688 22.8435 36.5688C21.3919 36.7421 19.612 37.2175 18.7519 37.4648Z" fill="#2B478B"/>
<path d="M42.0941 37.9063C41.7222 37.7676 41.4689 37.7112 41.3422 37.6892C41.3381 37.6892 41.336 37.6892 41.336 37.688C40.3573 37.4404 38.1444 36.9087 36.3708 36.6957C36.3708 36.6957 36.3708 36.6957 36.3708 36.6969C36.3708 36.737 36.377 37.5819 36.3872 39.0401V39.0413C36.3974 39.976 36.4076 41.1633 36.4199 42.5514C36.4444 45.136 36.4791 48.4192 36.5282 52.08H41.7856H44.497C44.6237 52.08 44.7463 52.0774 44.8689 52.0704C48.1688 51.9111 50.915 49.6478 51.7956 46.5942C47.0123 40.3318 43.5959 38.4602 42.0941 37.9063Z" fill="#2B478B"/>
<path d="M34.8985 23.5443C34.7588 24.2399 34.2347 24.685 33.3437 24.8665C32.6643 25.0052 32.018 24.9297 32.0121 24.9282H32.0005C31.3405 24.9282 30.8708 24.5422 30.5233 23.7133C30.4787 23.6048 30.3816 23.345 30.3564 23.0705C30.3564 23.0701 30.3564 23.0699 30.3564 23.0699C30.403 23.0881 30.4496 23.1087 30.4942 23.1326C30.5408 23.157 30.5971 23.1395 30.6223 23.0932C30.6456 23.0472 30.6282 22.9901 30.5835 22.9655C30.5078 22.9257 30.4302 22.8951 30.3545 22.8683C30.3545 22.8677 30.3545 22.8675 30.3545 22.8669C30.3661 22.739 30.3991 22.6168 30.4671 22.5111C30.6088 22.2994 30.8844 22.1909 31.2842 22.1909H33.6873C34.1124 22.1909 34.4851 22.3475 34.7083 22.6197C34.9063 22.8615 34.9723 23.1816 34.8985 23.5443ZM28.9724 23.0868C28.9472 23.3549 28.8521 23.6076 28.8094 23.7133C28.4619 24.5422 27.9922 24.9282 27.3302 24.9282H27.3205C27.3128 24.9297 26.6664 25.0052 25.989 24.8665C25.0961 24.685 24.5739 24.2399 24.4322 23.5443C24.3584 23.1816 24.4264 22.8615 24.6224 22.6197C24.8457 22.3475 25.2183 22.1909 25.6454 22.1909H28.0465C28.4483 22.1909 28.7239 22.2994 28.8637 22.5111C28.9375 22.6197 28.9705 22.7501 28.9763 22.8834C28.9763 22.884 28.9763 22.8846 28.9763 22.8852C28.8559 22.924 28.7764 22.9581 28.7666 22.9633C28.7181 22.9851 28.6968 23.0412 28.7201 23.0885C28.7356 23.1232 28.7686 23.1436 28.8055 23.1436C28.8191 23.1436 28.8326 23.1409 28.8443 23.1353C28.8462 23.1341 28.8948 23.1133 28.9724 23.086C28.9724 23.0864 28.9724 23.0868 28.9724 23.0868ZM34.8306 22.5194C34.5763 22.2099 34.1609 22.0327 33.6873 22.0327H31.2842C30.8281 22.0327 30.5078 22.1647 30.335 22.423C30.2555 22.544 30.2147 22.6801 30.1992 22.8204C30.1992 22.8207 30.1992 22.8213 30.1992 22.8215C29.7974 22.7216 29.4053 22.7728 29.1335 22.8409V22.8394C29.118 22.6925 29.0792 22.5497 28.9957 22.423C28.8229 22.1647 28.5046 22.0327 28.0465 22.0327H25.6454C25.1718 22.0327 24.7544 22.2099 24.5021 22.5194C24.2711 22.7998 24.1954 23.1651 24.2769 23.5761C24.5506 24.9324 26.1151 25.1057 26.8955 25.1057C27.1361 25.1057 27.3031 25.089 27.3341 25.0863C28.0659 25.085 28.5803 24.6674 28.9549 23.774C29.0171 23.6227 29.1199 23.3355 29.1355 23.0373V23.0371C29.3936 22.9678 29.7935 22.9057 30.1953 23.0148V23.0152C30.2069 23.3218 30.3118 23.6186 30.3777 23.774C30.7524 24.6674 31.2668 25.085 31.9986 25.0863C32.0296 25.089 32.1946 25.1057 32.4373 25.1057C33.2176 25.1057 34.7801 24.9324 35.0558 23.5761C35.1373 23.1651 35.0597 22.7998 34.8306 22.5194Z" fill="#B64C41"/>
</svg>
