<svg width="60" height="61" viewBox="0 0 60 61" fill="none" xmlns="http://www.w3.org/2000/svg">
<path d="M49.6084 60.3746H10.2329C4.58237 60.3746 0 55.7957 0 50.1456V10.7849C0 5.13485 4.58237 0.555904 10.2329 0.555904H49.6084C55.2606 0.555904 59.8413 5.13485 59.8413 10.7849V50.1456C59.8413 55.7957 55.2606 60.3746 49.6084 60.3746Z" fill="#E3F0FF"/>
<path d="M52.0904 15.2801V44.4887C52.0904 46.3573 51.4159 48.0667 50.2965 49.3894C48.9048 51.0337 46.8233 52.0792 44.4987 52.0792H15.2774C13.3585 52.0792 11.6074 51.3691 10.2722 50.1953C8.68538 48.8041 7.68402 46.7645 7.68402 44.4887V15.2801C7.68402 11.0878 11.0836 7.68958 15.2774 7.68958H44.4987C48.6925 7.68958 52.0904 11.0878 52.0904 15.2801Z" fill="#D2E4FF"/>
<path d="M26.7855 34.8688C26.7855 34.8688 22.0183 34.6292 21.8847 31.8795C21.7512 29.1297 17.8125 27.1243 18.9542 24.917C20.3527 22.21 19.0757 19.6057 20.8423 17.7868C22.7868 15.7796 25.2449 16.8696 26.5424 15.7009C27.8382 14.5322 30.209 13.4559 32.5473 14.8984C34.8855 16.3426 36.6709 15.5657 38.208 16.9569C39.9061 18.4917 39.2625 20.4253 40.6627 21.4759C41.9465 22.4376 41.4244 25.0675 40.3426 27.2047C39.5637 28.7447 41.3594 30.1889 38.2748 31.9582C36.9927 32.6957 37.27 34.5488 33.374 34.8688C31.6178 35.0125 27.8091 34.1912 26.7855 34.8688Z" fill="#2C3A64"/>
<path d="M26.9277 32.4305C26.9277 32.4305 26.789 36.7271 26.2395 38.6521L21.8848 41.6876L38.2749 44.1396L34.367 38.7411C34.367 38.7411 33.1858 32.9798 33.8055 30.8494C34.4252 28.7174 26.9277 32.4305 26.9277 32.4305Z" fill="#B56F40"/>
<path d="M26.9037 33.0242C26.9037 33.0225 28.2012 36.1419 30.6422 36.0734C33.0831 36.005 33.6394 33.245 33.6394 33.245L26.9037 33.0242Z" fill="#99592E"/>
<path d="M30.3613 34.8688C28.5931 34.838 25.3373 32.4818 25.3373 29.566V25.0162C25.3373 23.9519 26.0802 23.0792 26.9875 23.0792H33.7369C34.6442 23.0792 35.3871 23.9519 35.3871 25.0162V29.3094C35.3871 32.3671 32.3915 34.9047 30.3613 34.8688Z" fill="#B56F40"/>
<path d="M39.9404 39.8361H39.9387C37.9548 39.3381 36.089 38.9412 34.367 38.741C32.8435 40.7601 31.7531 41.2991 30.3615 41.8483C28.1242 41.5386 26.2395 38.7153 26.2395 38.652C23.802 38.9001 22.1604 39.4151 21.4894 39.6239C21.4894 39.6239 21.4877 39.6239 21.4826 39.6256C21.2874 39.6513 16.9293 40.3255 10.2723 50.2653C11.6074 51.4374 13.3586 52.1475 15.2775 52.1475H18.2867H20.7174H41.4194C41.4177 52.1253 41.4177 52.103 41.416 52.0791H44.4988C46.8234 52.0791 48.9049 51.0336 50.2966 49.3892C45.6183 41.3607 39.9404 39.8361 39.9404 39.8361Z" fill="#B64C41"/>
<path d="M25.3374 26.8608C25.3374 26.8608 26.5647 23.1152 30.5873 23.6987C34.6117 24.2839 34.9591 25.1429 35.3871 26.1387C35.815 27.1363 36.6401 22.4958 36.6401 22.4958L31.8951 21.0858C31.8951 21.0858 26.1522 21.7395 25.7396 22.7011C25.3271 23.6645 25.3271 23.6645 25.3271 23.6645L25.3374 26.8608Z" fill="#2C3A64"/>
<path d="M35.0157 28.2674C34.8907 28.8868 34.4251 29.2821 33.6326 29.4429C33.0283 29.5678 32.4532 29.4994 32.448 29.4977H32.4395C31.8506 29.4977 31.433 29.1554 31.1266 28.4197C31.0838 28.3221 30.9982 28.0911 30.9777 27.8482C30.9777 27.8464 30.9777 27.8464 30.9777 27.8464C31.0187 27.8618 31.0581 27.8807 31.0992 27.9029C31.1403 27.9234 31.1916 27.9081 31.2122 27.867C31.2344 27.8259 31.219 27.7763 31.1779 27.754C31.1112 27.7181 31.0444 27.6924 30.9777 27.6685C30.9777 27.6668 30.9777 27.6668 30.9777 27.6668C30.9862 27.5521 31.0153 27.4426 31.0769 27.3502C31.2019 27.1603 31.4467 27.0662 31.8027 27.0662H33.9373C34.3156 27.0662 34.6477 27.2048 34.8445 27.446C35.0208 27.6599 35.0807 27.9457 35.0157 28.2674ZM29.7486 27.8619C29.7247 28.0997 29.6391 28.3238 29.6014 28.4197C29.2933 29.1554 28.8756 29.4977 28.2868 29.4977H28.2782C28.2714 29.4994 27.6979 29.5678 27.0937 29.4429C26.3011 29.2821 25.8355 28.8868 25.7106 28.2674C25.6472 27.9457 25.7037 27.6599 25.8818 27.446C26.0786 27.2048 26.4107 27.0662 26.789 27.0662H28.9253C29.2813 27.0662 29.5244 27.1603 29.651 27.3502C29.7144 27.446 29.7435 27.5624 29.7503 27.6805V27.6822C29.6425 27.7164 29.5723 27.7472 29.5637 27.7523C29.5209 27.7712 29.5021 27.8208 29.5209 27.8636C29.5364 27.8944 29.5672 27.9115 29.598 27.9115C29.61 27.9115 29.6219 27.9098 29.6339 27.9046C29.6356 27.9029 29.6784 27.8841 29.7486 27.8601V27.8619ZM34.9541 27.3571C34.7281 27.0816 34.3584 26.9259 33.9373 26.9259H31.8027C31.3953 26.9259 31.1129 27.0405 30.9588 27.2715C30.8869 27.3776 30.851 27.4991 30.839 27.6257C30.4812 27.5367 30.132 27.5829 29.889 27.6428V27.6411C29.8787 27.5111 29.841 27.3827 29.7674 27.2715C29.6151 27.0405 29.3309 26.9259 28.9253 26.9259H26.789C26.3679 26.9259 25.9964 27.0816 25.7722 27.3571C25.5685 27.6052 25.5 27.9303 25.5736 28.2948C25.8167 29.5028 27.2067 29.6568 27.9016 29.6568C28.1156 29.6568 28.2628 29.6414 28.2902 29.638C28.9407 29.6363 29.3977 29.2667 29.7298 28.4727C29.7863 28.3358 29.8787 28.0826 29.8924 27.8174C30.1235 27.7558 30.4778 27.6993 30.8339 27.7985C30.8441 28.0706 30.9383 28.3341 30.9948 28.4727C31.3286 29.2667 31.7856 29.6363 32.4361 29.638C32.4635 29.6414 32.6107 29.6568 32.8246 29.6568C33.5196 29.6568 34.9096 29.5028 35.1526 28.2965C35.2262 27.9303 35.1578 27.6052 34.9541 27.3571Z" fill="#2C3A64"/>
</svg>
