<svg width="60" height="61" viewBox="0 0 60 61" fill="none" xmlns="http://www.w3.org/2000/svg">
<path d="M49.6081 60.3746H10.2332C4.58179 60.3746 0 55.7946 0 50.1453V10.7852C0 5.13599 4.58179 0.555908 10.2332 0.555908H49.6081C55.2595 0.555908 59.8413 5.13599 59.8413 10.7852V50.1453C59.8413 55.7946 55.2595 60.3746 49.6081 60.3746Z" fill="#E3F0FF"/>
<path d="M52.091 15.2802V44.4896C52.091 46.4899 51.3169 48.3071 50.0514 49.6637C48.6655 51.1502 46.6901 52.0797 44.498 52.0797H15.2775C13.0244 52.0797 10.9993 51.0988 9.60851 49.5384C8.41207 48.198 7.68457 46.4289 7.68457 44.4896V15.2802C7.68457 11.0886 11.0844 7.69005 15.2775 7.69005H44.498C48.6912 7.69005 52.091 11.0886 52.091 15.2802Z" fill="#D2E4FF"/>
<path d="M24.1665 29.6771C24.1665 29.6771 19.9251 21.9874 23.8148 18.5921C27.7044 15.1968 34.5522 17.2243 35.8129 18.5921C37.0736 19.9615 38.7502 23.856 35.2717 29.3929L24.1665 29.6771Z" fill="#2C3A64"/>
<path d="M25.9234 32.8412C25.9234 32.8412 25.7708 37.5899 25.1622 39.717L20.3507 43.0722L38.4627 45.7804L34.1427 39.8149C34.1427 39.8149 32.8387 33.4497 33.5228 31.0946C34.2069 28.7396 25.9234 32.8412 25.9234 32.8412Z" fill="#B56F40"/>
<path d="M25.8977 33.4978C25.8977 33.4962 27.3302 36.9445 30.0282 36.8674C32.7246 36.792 33.3397 33.7418 33.3397 33.7418L25.8977 33.4978Z" fill="#99592E"/>
<path d="M29.7182 35.5365C27.7638 35.5012 24.1664 32.8989 24.1664 29.677V24.649C24.1664 23.4723 24.9871 22.5107 25.9892 22.5107H33.4473C34.451 22.5107 35.2717 23.4723 35.2717 24.649V29.3928C35.2717 32.7721 31.9602 35.5751 29.7182 35.5365Z" fill="#B56F40"/>
<path d="M50.0513 49.6637C48.6654 51.1502 46.6901 52.0797 44.4979 52.0797H15.2775C13.0243 52.0797 10.9992 51.0988 9.60846 49.5384C15.8717 41.2195 19.8416 40.6961 19.9444 40.6849C20.6848 40.4553 22.485 39.932 25.1798 39.6559C25.1798 39.7249 27.2772 42.7992 29.752 43.1395C31.2889 42.5327 32.4404 41.9387 34.1218 39.7056C36.0265 39.9272 38.1416 40.367 40.3337 40.9193L40.3321 40.908C40.3321 40.908 44.0434 41.8392 50.0513 49.6637Z" fill="#74ACBE"/>
<path d="M24.1666 26.6879C24.1666 26.6879 25.522 22.5477 29.9689 23.1946C34.4142 23.84 34.7996 24.7887 35.2718 25.8916C35.7439 26.9929 36.6561 21.8654 36.6561 21.8654L31.4127 20.3066C31.4127 20.3066 25.0659 21.029 24.6114 22.0917C24.1553 23.1561 24.1553 23.1561 24.1553 23.1561L24.1666 26.6879Z" fill="#2C3A64"/>
<path d="M29.3553 18.6786C29.3553 18.6786 24.6563 14.41 26.6734 13.4982C28.6889 12.5879 29.3553 18.6786 29.3553 18.6786Z" fill="#2C3A64"/>
<path d="M29.1659 18.7912C29.1659 18.7912 23.2254 16.5533 24.7623 14.964C26.3008 13.3747 29.1659 18.7912 29.1659 18.7912Z" fill="#2C3A64"/>
<path d="M29.5545 18.9147C29.5545 18.9147 28.5829 13.41 30.9308 13.4501C33.2787 13.4902 29.5545 18.9147 29.5545 18.9147Z" fill="#2C3A64"/>
<path d="M29.8837 18.5551C29.8837 18.5551 32.4292 12.6346 34.798 13.1884C37.1668 13.7423 29.8837 18.5551 29.8837 18.5551Z" fill="#2C3A64"/>
<path d="M29.7536 18.9147C29.7536 18.9147 33.8038 13.9012 35.9349 15.0731C38.0645 16.2466 29.7536 18.9147 29.7536 18.9147Z" fill="#2C3A64"/>
</svg>
